# xmcd CD database file
#
# Track frame offsets:
#	150
#	19420
#	38142
#	60135
#	84315
#	104300
#	124557
#	144975
#	165692
#	187122
#
# Disc length: 2755 seconds
#
# Revision: 0
# Processed by: cddbd v1.5.1PL2 Copyright (c) Steve Scherf et al.
# Submitted via: CDex 1.51
#
DISCID=790ac10a
DTITLE=林憶蓮 - Sandy’94
DYEAR=1900
DGENRE=Other
TTITLE0=もっと・・
TTITLE1=シカゴの夢
TTITLE2=ベターハーフ
TTITLE3=ごめんね、愛
TTITLE4=決心　リミックス
TTITLE5=愛に溺れて
TTITLE6=あらわな秘密
TTITLE7=エターナル・ラブ
TTITLE8=明日、目覚めたら
TTITLE9=決心
EXTD=
EXTT0=
EXTT1=
EXTT2=
EXTT3=
EXTT4=
EXTT5=
EXTT6=
EXTT7=
EXTT8=
EXTT9=
PLAYORDER=
